<svg width="29" height="26" viewBox="0 0 29 26" fill="none" xmlns="http://www.w3.org/2000/svg">
<path d="M0 4.875C0 3.9777 0.927612 3.25 2.07143 3.25H26.9286C28.0743 3.25 29 3.9777 29 4.875C29 5.77383 28.0743 6.5 26.9286 6.5H2.07143C0.927612 6.5 0 5.77383 0 4.875ZM0 13C0 12.1012 0.927612 11.375 2.07143 11.375H26.9286C28.0743 11.375 29 12.1012 29 13C29 13.8988 28.0743 14.625 26.9286 14.625H2.07143C0.927612 14.625 0 13.8988 0 13ZM26.9286 22.75H2.07143C0.927612 22.75 0 22.0238 0 21.125C0 20.2262 0.927612 19.5 2.07143 19.5H26.9286C28.0743 19.5 29 20.2262 29 21.125C29 22.0238 28.0743 22.75 26.9286 22.75Z" fill="black"/>
</svg>
